<svg width="27" height="26" viewBox="0 0 27 26" fill="none" xmlns="http://www.w3.org/2000/svg">
<path fill-rule="evenodd" clip-rule="evenodd" d="M13.5 4.07195C14.6525 1.66258 17.0839 0 19.8947 0C23.8168 0 27 3.2356 27 7.22232C27 11.4373 24.8912 15.3027 22.3318 18.4097C18.5717 22.9757 13.8709 25.8949 13.8709 25.8949C13.6435 26.035 13.3565 26.035 13.1291 25.8949C13.1291 25.8949 8.42826 22.9757 4.66816 18.4097C2.10884 15.3027 0 11.4373 0 7.22232C0 3.2356 3.18316 0 7.10526 0C9.91611 0 12.3475 1.66258 13.5 4.07195ZM25.5789 7.22232C25.5789 4.03295 23.0324 1.44446 19.8947 1.44446C16.7571 1.44446 14.2105 4.03295 14.2105 7.22232V7.24977C14.1949 7.63544 13.8823 7.94455 13.5 7.94455C13.1106 7.94455 12.7952 7.62677 12.7895 7.23243V7.22232C12.7895 4.03295 10.2429 1.44446 7.10526 1.44446C3.96758 1.44446 1.42105 4.03295 1.42105 7.22232C1.42105 11.0964 3.40484 14.6266 5.75668 17.4824C8.74516 21.1094 12.3504 23.6546 13.5 24.4201C14.6496 23.6546 18.2548 21.1094 21.2433 17.4824C23.5952 14.6266 25.5789 11.0964 25.5789 7.22232Z" fill="#1A191D"/>
</svg>
