<svg width="27" height="26" viewBox="0 0 27 26" fill="none" xmlns="http://www.w3.org/2000/svg">
<path d="M19.8947 2.7551e-06C17.0839 2.7551e-06 14.6525 1.66258 13.5 4.07195C12.3475 1.66258 9.91611 2.7551e-06 7.10526 2.7551e-06C3.18316 2.7551e-06 0 3.2356 0 7.22232C0 11.4373 2.10884 15.3027 4.66816 18.4097C8.42826 22.9757 13.1291 25.8949 13.1291 25.8949C13.3565 26.035 13.6435 26.035 13.8709 25.8949C13.8709 25.8949 18.5717 22.9757 22.3318 18.4097C24.8912 15.3027 27 11.4373 27 7.22232C27 3.2356 23.8168 2.7551e-06 19.8947 2.7551e-06Z" fill="#F33030"/>
</svg>
