<svg width="6" height="6" viewBox="0 0 6 6" fill="none" xmlns="http://www.w3.org/2000/svg">
<path d="M2.10526 0.529412V2.11765H0.526316C0.235789 2.11765 0 2.35482 0 2.64706C0 2.93929 0.235789 3.17647 0.526316 3.17647H2.10526V4.76471C2.10526 5.05694 2.34105 5.29412 2.63158 5.29412C2.92211 5.29412 3.1579 5.05694 3.1579 4.76471V3.17647H4.73684C5.02737 3.17647 5.26316 2.93929 5.26316 2.64706C5.26316 2.35482 5.02737 2.11765 4.73684 2.11765H3.1579V0.529412C3.1579 0.237176 2.92211 0 2.63158 0C2.34105 0 2.10526 0.237176 2.10526 0.529412Z" fill="white"/>
</svg>
